<?xml version="1.0" standalone="no"?>
<svg width="1280" height="950" xmlns="http://www.w3.org/2000/svg" style="position: absolute; inset: 0px; background: rgb(255, 255, 255);" xmlns:xlink="http://www.w3.org/1999/xlink"><defs><marker id="ap" markerWidth="7" markerHeight="5" refX="6" refY="2.5" orient="auto"><polygon points="0 0,7 2.5,0 5" fill="#1a5a32"/></marker><marker id="an" markerWidth="7" markerHeight="5" refX="6" refY="2.5" orient="auto"><polygon points="0 0,7 2.5,0 5" fill="#7a1a1a"/></marker><marker id="ac" markerWidth="7" markerHeight="5" refX="6" refY="2.5" orient="auto"><polygon points="0 0,7 2.5,0 5" fill="#9a9a9a"/></marker></defs><g><path d="M615.9583694396574,230.5416305603426 Q499.02207793864216,322.02207793864216 410.3700576850888,436.12994231491126" fill="none" stroke="#1a5a32" stroke-width="1.4" stroke-opacity="0.85" marker-end="url(#ap)"/><rect x="493.02207793864216" y="316.02207793864216" width="12" height="12" fill="#ebebeb"/><text x="499.02207793864216" y="323.02207793864216" text-anchor="middle" dominant-baseline="middle" fill="#1a5a32" font-family="monospace" font-size="11" font-weight="700">+</text></g><g><path d="M862.5,463 Q640,445 421.5,463.00000000000006" fill="none" stroke="#1a5a32" stroke-width="1.4" stroke-opacity="0.85" marker-end="url(#ap)"/><rect x="634" y="439" width="12" height="12" fill="#ebebeb"/><text x="640" y="446" text-anchor="middle" dominant-baseline="middle" fill="#1a5a32" font-family="monospace" font-size="11" font-weight="700">+</text></g><g><path d="M615.9583694396574,695.4583694396574 Q524.4779220613578,578.5220779386422 410.3700576850888,489.87005768508885" fill="none" stroke="#1a5a32" stroke-width="1.4" stroke-opacity="0.85" marker-end="url(#ap)"/><rect x="518.4779220613578" y="572.5220779386422" width="12" height="12" fill="#ebebeb"/><text x="524.4779220613578" y="579.5220779386422" text-anchor="middle" dominant-baseline="middle" fill="#1a5a32" font-family="monospace" font-size="11" font-weight="700">+</text></g><g><path d="M407.54163056034264,438.9583694396574 Q524.4779220613578,347.47792206135784 613.1299423149112,233.3700576850888" fill="none" stroke="#1a5a32" stroke-width="1.4" stroke-opacity="0.85" marker-end="url(#ap)"/><g transform="translate(517.4068542494924,341.8210678118655) rotate(-45.00000000000001)"><line x1="-3" y1="-5" x2="-3" y2="5" stroke="#1a5a32" stroke-width="1.3"/><line x1="3" y1="-5" x2="3" y2="5" stroke="#1a5a32" stroke-width="1.3"/></g><rect x="518.4779220613578" y="341.47792206135784" width="12" height="12" fill="#ebebeb"/><text x="524.4779220613578" y="348.47792206135784" text-anchor="middle" dominant-baseline="middle" fill="#1a5a32" font-family="monospace" font-size="11" font-weight="700">+</text></g><g><path d="M417.5,463.00000000000006 Q640,481 858.5,463" fill="none" stroke="#1a5a32" stroke-width="1.4" stroke-opacity="0.85" marker-end="url(#ap)"/><g transform="translate(639,472) rotate(-7.385233546074016e-15)"><line x1="-3" y1="-5" x2="-3" y2="5" stroke="#1a5a32" stroke-width="1.3"/><line x1="3" y1="-5" x2="3" y2="5" stroke="#1a5a32" stroke-width="1.3"/></g><rect x="634" y="475" width="12" height="12" fill="#ebebeb"/><text x="640" y="482" text-anchor="middle" dominant-baseline="middle" fill="#1a5a32" font-family="monospace" font-size="11" font-weight="700">+</text></g><g transform="translate(640,206.5)"><circle r="40" fill="none" stroke="#0c3a6a" stroke-width="0.5" stroke-opacity="0.18" stroke-dasharray="3 3"/><circle r="33" fill="#ebebeb" stroke="#0c3a6a" stroke-width="1.5"/><circle r="31" fill="#0c3a6a" fill-opacity="0.07"/><rect x="16" y="-30" width="14" height="3" fill="#0c3a6a"/><text x="0" y="-5.5" text-anchor="middle" dominant-baseline="middle" fill="#0a0a0a" font-family="Barlow Condensed,sans-serif" font-size="10" font-weight="700" letter-spacing="0.05em">SELF</text><text x="0" y="5.5" text-anchor="middle" dominant-baseline="middle" fill="#0a0a0a" font-family="Barlow Condensed,sans-serif" font-size="10" font-weight="700" letter-spacing="0.05em">EXPRESSION</text></g><g transform="translate(896.5,463)"><circle r="40" fill="none" stroke="#0c3a6a" stroke-width="0.5" stroke-opacity="0.18" stroke-dasharray="3 3"/><circle r="33" fill="#ebebeb" stroke="#0c3a6a" stroke-width="1.5"/><circle r="31" fill="#0c3a6a" fill-opacity="0.07"/><rect x="16" y="-30" width="14" height="3" fill="#0c3a6a"/><text x="0" y="-5.5" text-anchor="middle" dominant-baseline="middle" fill="#0a0a0a" font-family="Barlow Condensed,sans-serif" font-size="10" font-weight="700" letter-spacing="0.05em">COMMUNAL</text><text x="0" y="5.5" text-anchor="middle" dominant-baseline="middle" fill="#0a0a0a" font-family="Barlow Condensed,sans-serif" font-size="10" font-weight="700" letter-spacing="0.05em">EFFORT</text></g><g transform="translate(640,719.5)"><circle r="40" fill="none" stroke="#0c3a6a" stroke-width="0.5" stroke-opacity="0.18" stroke-dasharray="3 3"/><circle r="33" fill="#ebebeb" stroke="#0c3a6a" stroke-width="1.5"/><circle r="31" fill="#0c3a6a" fill-opacity="0.07"/><rect x="16" y="-30" width="14" height="3" fill="#0c3a6a"/><text x="0" y="-5.5" text-anchor="middle" dominant-baseline="middle" fill="#0a0a0a" font-family="Barlow Condensed,sans-serif" font-size="10" font-weight="700" letter-spacing="0.05em">TEMP</text><text x="0" y="5.5" text-anchor="middle" dominant-baseline="middle" fill="#0a0a0a" font-family="Barlow Condensed,sans-serif" font-size="10" font-weight="700" letter-spacing="0.05em">INFRASTRUCTURE</text></g><g transform="translate(383.5,463.00000000000006)"><circle r="40" fill="none" stroke="#e8722a" stroke-width="0.5" stroke-opacity="0.18" stroke-dasharray="3 3"/><circle r="33" fill="#ebebeb" stroke="#e8722a" stroke-width="1.5"/><circle r="31" fill="#e8722a" fill-opacity="0.07"/><rect x="16" y="-30" width="14" height="3" fill="#e8722a"/><text x="0" y="-5.5" text-anchor="middle" dominant-baseline="middle" fill="#0a0a0a" font-family="Barlow Condensed,sans-serif" font-size="10" font-weight="700" letter-spacing="0.05em">PLAYA</text><text x="0" y="5.5" text-anchor="middle" dominant-baseline="middle" fill="#0a0a0a" font-family="Barlow Condensed,sans-serif" font-size="10" font-weight="700" letter-spacing="0.05em">MAGIC</text><circle cx="26" cy="-26" r="8" fill="#1a5a32"/><text x="26" y="-25" text-anchor="middle" dominant-baseline="middle" fill="#fff" font-size="8" font-weight="700">✓</text></g></svg>