<?xml version="1.0" standalone="no"?>
<svg width="1280" height="950" xmlns="http://www.w3.org/2000/svg" style="position: absolute; inset: 0px; background: rgb(255, 255, 255);" xmlns:xlink="http://www.w3.org/1999/xlink"><defs><marker id="ap" markerWidth="7" markerHeight="5" refX="6" refY="2.5" orient="auto"><polygon points="0 0,7 2.5,0 5" fill="#1a5a32"/></marker><marker id="an" markerWidth="7" markerHeight="5" refX="6" refY="2.5" orient="auto"><polygon points="0 0,7 2.5,0 5" fill="#7a1a1a"/></marker><marker id="ac" markerWidth="7" markerHeight="5" refX="6" refY="2.5" orient="auto"><polygon points="0 0,7 2.5,0 5" fill="#9a9a9a"/></marker></defs><g><path d="M629.4934221912517,238.83592155403522 Q547.4975241001777,432.9441236298379 500.97572857322865,634.3727114379582" fill="none" stroke="#1a5a32" stroke-width="1.4" stroke-opacity="0.85" marker-end="url(#ap)"/><rect x="541.4975241001777" y="426.9441236298379" width="12" height="12" fill="#ebebeb"/><text x="547.4975241001777" y="433.9441236298379" text-anchor="middle" dominant-baseline="middle" fill="#1a5a32" font-family="monospace" font-size="11" font-weight="700">+</text></g><g><path d="M856.4394186209586,403.72183952077006 Q676.0094050670792,512.5626941012509 519.9757285732287,648.17701947006" fill="none" stroke="#1a5a32" stroke-width="1.4" stroke-opacity="0.85" marker-end="url(#ap)"/><rect x="670.0094050670792" y="506.56269410125094" width="12" height="12" fill="#ebebeb"/><text x="676.0094050670792" y="513.5626941012509" text-anchor="middle" dominant-baseline="middle" fill="#1a5a32" font-family="monospace" font-size="11" font-weight="700">+</text></g><g><path d="M756.7669172130194,670.512859057174 Q640,652.512859057174 527.2330827869807,670.512859057174" fill="none" stroke="#1a5a32" stroke-width="1.4" stroke-opacity="0.85" marker-end="url(#ap)"/><rect x="634" y="646.512859057174" width="12" height="12" fill="#ebebeb"/><text x="640" y="653.512859057174" text-anchor="middle" dominant-baseline="middle" fill="#1a5a32" font-family="monospace" font-size="11" font-weight="700">+</text></g><g><path d="M478.72650497823247,638.1769375031388 Q459.76256047194966,521.5626941012509 407.79664935654114,419.8772885620419" fill="none" stroke="#1a5a32" stroke-width="1.4" stroke-opacity="0.85" marker-end="url(#ap)"/><g transform="translate(451.51206881966823,525.2949035669207) rotate(-108.00000000000001)"><line x1="-3" y1="-5" x2="-3" y2="5" stroke="#1a5a32" stroke-width="1.3"/><line x1="3" y1="-5" x2="3" y2="5" stroke="#1a5a32" stroke-width="1.3"/></g><rect x="453.76256047194966" y="515.5626941012509" width="12" height="12" fill="#ebebeb"/><text x="459.76256047194966" y="522.5626941012509" text-anchor="middle" dominant-baseline="middle" fill="#1a5a32" font-family="monospace" font-size="11" font-weight="700">+</text></g><g><path d="M423.5605813790413,363.752442364882 Q528.6071363264111,309.6808763701621 609.257354213752,228.83583958711398" fill="none" stroke="#1a5a32" stroke-width="1.4" stroke-opacity="0.85" marker-end="url(#ap)"/><g transform="translate(522.5080520614039,302.98750867308) rotate(-36.000000000000014)"><line x1="-3" y1="-5" x2="-3" y2="5" stroke="#1a5a32" stroke-width="1.3"/><line x1="3" y1="-5" x2="3" y2="5" stroke="#1a5a32" stroke-width="1.3"/></g><rect x="522.6071363264111" y="303.6808763701621" width="12" height="12" fill="#ebebeb"/><text x="528.6071363264111" y="310.6808763701621" text-anchor="middle" dominant-baseline="middle" fill="#1a5a32" font-family="monospace" font-size="11" font-weight="700">+</text></g><g><path d="M430.0540035702931,383.73714094282604 Q640,401.73714094282604 845.9459964297068,383.737140942826" fill="none" stroke="#1a5a32" stroke-width="1.4" stroke-opacity="0.85" marker-end="url(#ap)"/><g transform="translate(639,392.73714094282604) rotate(-7.831090883540008e-15)"><line x1="-3" y1="-5" x2="-3" y2="5" stroke="#1a5a32" stroke-width="1.3"/><line x1="3" y1="-5" x2="3" y2="5" stroke="#1a5a32" stroke-width="1.3"/></g><rect x="634" y="395.73714094282604" width="12" height="12" fill="#ebebeb"/><text x="640" y="402.73714094282604" text-anchor="middle" dominant-baseline="middle" fill="#1a5a32" font-family="monospace" font-size="11" font-weight="700">+</text></g><g><path d="M423.5605813790413,403.7218395207701 Q582.8303258503917,541.6873058987491 760.0242714267714,648.17701947006" fill="none" stroke="#1a5a32" stroke-width="1.4" stroke-opacity="0.85" marker-end="url(#ap)"/><g transform="translate(587.3113761266491,533.8183676970821) rotate(35.999999999999986)"><line x1="-3" y1="-5" x2="-3" y2="5" stroke="#1a5a32" stroke-width="1.3"/><line x1="3" y1="-5" x2="3" y2="5" stroke="#1a5a32" stroke-width="1.3"/></g><rect x="576.8303258503917" y="535.6873058987491" width="12" height="12" fill="#ebebeb"/><text x="582.8303258503917" y="542.6873058987491" text-anchor="middle" dominant-baseline="middle" fill="#1a5a32" font-family="monospace" font-size="11" font-weight="700">+</text></g><g transform="translate(640,206.5)"><circle r="40" fill="none" stroke="#0c3a6a" stroke-width="0.5" stroke-opacity="0.18" stroke-dasharray="3 3"/><circle r="33" fill="#ebebeb" stroke="#0c3a6a" stroke-width="1.5"/><circle r="31" fill="#0c3a6a" fill-opacity="0.07"/><rect x="16" y="-30" width="14" height="3" fill="#0c3a6a"/><text x="0" y="0" text-anchor="middle" dominant-baseline="middle" fill="#0a0a0a" font-family="Barlow Condensed,sans-serif" font-size="10" font-weight="700" letter-spacing="0.05em">ELEMENT A</text></g><g transform="translate(883.9459964297068,383.737140942826)"><circle r="40" fill="none" stroke="#0c3a6a" stroke-width="0.5" stroke-opacity="0.18" stroke-dasharray="3 3"/><circle r="33" fill="#ebebeb" stroke="#0c3a6a" stroke-width="1.5"/><circle r="31" fill="#0c3a6a" fill-opacity="0.07"/><rect x="16" y="-30" width="14" height="3" fill="#0c3a6a"/><text x="0" y="0" text-anchor="middle" dominant-baseline="middle" fill="#0a0a0a" font-family="Barlow Condensed,sans-serif" font-size="10" font-weight="700" letter-spacing="0.05em">ELEMENT B</text></g><g transform="translate(790.7669172130194,670.512859057174)"><circle r="40" fill="none" stroke="#0c3a6a" stroke-width="0.5" stroke-opacity="0.18" stroke-dasharray="3 3"/><circle r="33" fill="#ebebeb" stroke="#0c3a6a" stroke-width="1.5"/><circle r="31" fill="#0c3a6a" fill-opacity="0.07"/><rect x="16" y="-30" width="14" height="3" fill="#0c3a6a"/><text x="0" y="0" text-anchor="middle" dominant-baseline="middle" fill="#0a0a0a" font-family="Barlow Condensed,sans-serif" font-size="10" font-weight="700" letter-spacing="0.05em">CONTEXT Θ</text></g><g transform="translate(489.2330827869807,670.512859057174)"><circle r="40" fill="none" stroke="#3a1a6a" stroke-width="0.5" stroke-opacity="0.18" stroke-dasharray="3 3"/><circle r="33" fill="#ebebeb" stroke="#3a1a6a" stroke-width="1.5"/><circle r="31" fill="#3a1a6a" fill-opacity="0.07"/><rect x="16" y="-30" width="14" height="3" fill="#3a1a6a"/><text x="0" y="-5.5" text-anchor="middle" dominant-baseline="middle" fill="#0a0a0a" font-family="Barlow Condensed,sans-serif" font-size="10" font-weight="700" letter-spacing="0.05em">COORDINATION</text><text x="0" y="5.5" text-anchor="middle" dominant-baseline="middle" fill="#0a0a0a" font-family="Barlow Condensed,sans-serif" font-size="10" font-weight="700" letter-spacing="0.05em">FUNCTION C</text></g><g transform="translate(396.0540035702931,383.73714094282604)"><circle r="40" fill="none" stroke="#e8722a" stroke-width="0.5" stroke-opacity="0.18" stroke-dasharray="3 3"/><circle r="33" fill="#ebebeb" stroke="#e8722a" stroke-width="1.5"/><circle r="31" fill="#e8722a" fill-opacity="0.07"/><rect x="16" y="-30" width="14" height="3" fill="#e8722a"/><text x="0" y="-5.5" text-anchor="middle" dominant-baseline="middle" fill="#0a0a0a" font-family="Barlow Condensed,sans-serif" font-size="10" font-weight="700" letter-spacing="0.05em">EMERGENCE</text><text x="0" y="5.5" text-anchor="middle" dominant-baseline="middle" fill="#0a0a0a" font-family="Barlow Condensed,sans-serif" font-size="10" font-weight="700" letter-spacing="0.05em">E</text><circle cx="26" cy="-26" r="8" fill="#1a5a32"/><text x="26" y="-25" text-anchor="middle" dominant-baseline="middle" fill="#fff" font-size="8" font-weight="700">✓</text></g></svg>